<?xml version="1.0" encoding="UTF-8"?>
<svg width="159px" height="160px" viewBox="0 0 159 160" version="1.1" xmlns="http://www.w3.org/2000/svg" xmlns:xlink="http://www.w3.org/1999/xlink">
    <!-- Generator: Sketch 53.2 (72643) - https://sketchapp.com -->
    <title>boto50000V2</title>
    <desc>Created with Sketch.</desc>
    <defs>
        <ellipse id="path-1" cx="79.5" cy="80" rx="79.5" ry="80"></ellipse>
    </defs>
    <g id="Page-1" stroke="none" stroke-width="1" fill="none" fill-rule="evenodd">
        <g id="Artboard">
            <g id="boto50000V2">
                <g id="Mask" fill="#7DC9DD" fill-rule="nonzero">
                    <ellipse id="path-1" cx="79.5" cy="80" rx="79.5" ry="80"></ellipse>
                </g>
                <g id="Clipped">
                    <mask id="mask-2" fill="white">
                        <use xlink:href="#path-1"></use>
                    </mask>
                    <g id="path-1"></g>
                    <g id="Group" mask="url(#mask-2)" fill-rule="nonzero">
                        <g transform="translate(18.000000, 14.000000)">
                            <path d="M98.624742,175 L25.372769,175 C22.957418,175 21,173.031597 21,170.605775 L21,101.394225 C21,98.968403 22.957418,97 25.372769,97 L98.624742,97 C101.041338,97 103,98.968403 103,101.394225 L103,170.605775 C103,173.031597 101.041338,175 98.624742,175" id="Fill-235" fill="#41AC9E"></path>
                            <path d="M92.147672,149 L30.852328,149 C29.829964,149 29,148.168454 29,147.142587 L29,112.857413 C29,111.831546 29.829964,111 30.852328,111 L92.147672,111 C93.170036,111 94,111.831546 94,112.857413 L94,147.142587 C94,148.168454 93.170036,149 92.147672,149" id="Fill-236" fill="#2F334C"></path>
                            <path d="M66,3.75408288 C66,1.68041089 64.208479,0 62.000665,0 C59.791521,0 58,1.68041089 58,3.75408288 C58,5.6592144 59.518869,7.21602895 61.476642,7.45822784 C61.476642,12.4807338 61.476642,17.5032398 61.476642,22.5257457 C61.476642,23.1574604 62.523358,23.1587088 62.523358,22.5257457 C62.523358,17.5032398 62.523358,12.4807338 62.523358,7.45822784 C64.482461,7.21602895 66,5.6592144 66,3.75408288" id="Fill-240" fill="#F5D238"></path>
                            <polygon id="Fill-241" fill="#F5D238" points="56 98 68 98 68 86 56 86"></polygon>
                            <path d="M92.786991,86 L31.21426,86 C28.887598,86 27,84.1292284 27,81.8233072 L27,28.2627074 C27,25.355511 29.377949,23 32.310043,23 L92.61812,23 C95.038599,23 97,24.9439164 97,27.3428183 L97,81.8233072 C97,84.1292284 95.113653,86 92.786991,86" id="Fill-242" fill="#41AC9E"></path>
                            <path d="M97.054274,45 C97.037005,45 97.018503,45.0024805 97,45.0024805 L97,64.9962793 C97.018503,64.9962793 97.037005,65 97.054274,65 C102.547058,65 107,60.5227583 107,55 C107,49.478482 102.547058,45 97.054274,45" id="Fill-243" fill="#F5D238"></path>
                            <path d="M26.946953,45 C26.965458,45 26.982729,45.0024805 27,45.0024805 L27,64.9962793 C26.982729,64.9962793 26.965458,65 26.946953,65 C21.453491,65 17,60.5227583 17,55 C17,49.478482 21.453491,45 26.946953,45" id="Fill-244" fill="#F5D238"></path>
                            <polygon id="Fill-245" fill="#2F334C" points="56 79 67 79 67 68 56 68"></polygon>
                            <path d="M42.500622,58 C37.253193,58 33,53.7455629 33,48.4993778 C33,43.2531927 37.253193,39 42.500622,39 C47.746807,39 52,43.2531927 52,48.4993778 C52,53.7455629 47.746807,58 42.500622,58" id="Fill-247" fill="#F5D238"></path>
                            <path d="M43.000605,56 C39.134906,56 36,52.8656355 36,48.9993951 C36,45.1343645 39.134906,42 43.000605,42 C46.866304,42 50,45.1343645 50,48.9993951 C50,52.8656355 46.866304,56 43.000605,56" id="Fill-248" fill="#2F334C"></path>
                            <path d="M39.5,47 C38.671928,47 38,46.3283582 38,45.4993603 C38,44.6716418 38.671928,44 39.5,44 C40.329352,44 41,44.6716418 41,45.4993603 C41,46.3283582 40.329352,47 39.5,47" id="Fill-249" fill="#FFFFFE"></path>
                            <path d="M80.501244,58 C75.253471,58 71,53.7455629 71,48.4993778 C71,43.2531927 75.253471,39 80.501244,39 C85.746529,39 90,43.2531927 90,48.4993778 C90,53.7455629 85.746529,58 80.501244,58" id="Fill-251" fill="#F5D238"></path>
                            <path d="M81.00121,56 C77.134635,56 74,52.8656355 74,48.9993951 C74,45.1343645 77.134635,42 81.00121,42 C84.866574,42 88,45.1343645 88,48.9993951 C88,52.8656355 84.866574,56 81.00121,56" id="Fill-252" fill="#2F334C"></path>
                            <path d="M77.49936,47 C76.670362,47 76,46.3283582 76,45.4993603 C76,44.6716418 76.670362,44 77.49936,44 C78.327079,44 79,44.6716418 79,45.4993603 C79,46.3283582 78.327079,47 77.49936,47" id="Fill-253" fill="#FFFFFE"></path>
                            <polygon id="Fill-254" fill="#41AC9E" points="6 178 15 178 15 134 6 134"></polygon>
                            <path d="M20,134 L2.308772,134 C1.034125,134 0,132.959508 0,131.675497 L0,110.323273 C0,109.039262 1.034125,108 2.308772,108 L20,108 L20,134" id="Fill-255" fill="#2F334C"></path>
                            <polygon id="Fill-257" fill="#41AC9E" points="108 178 117 178 117 134 108 134"></polygon>
                            <path d="M103,134 L120.692449,134 C121.967096,134 123,132.959508 123,131.675497 L123,110.323273 C123,109.039262 121.967096,108 120.692449,108 L103,108 L103,134" id="Fill-258" fill="#2F334C"></path>
                            <path d="M52,66 L73,66 L73,72.6253442 C73,78.3552384 68.299121,83 62.5,83 C56.700879,83 52,78.3552384 52,72.6253442 L52,66" id="Fill-287" fill="#2F334C"></path>
                            <polygon id="Fill-288" fill="#FFFFFE" points="52 72 73 72 73 66 52 66"></polygon>
                        </g>
                    </g>
                </g>
            </g>
        </g>
    </g>
</svg>