<?xml version="1.0" encoding="UTF-8"?>
<svg width="16px" height="23px" viewBox="0 0 16 23" version="1.1" xmlns="http://www.w3.org/2000/svg" xmlns:xlink="http://www.w3.org/1999/xlink">
    <!-- Generator: Sketch 53.2 (72643) - https://sketchapp.com -->
    <title>placeholder</title>
    <desc>Created with Sketch.</desc>
    <g id="Page-1" stroke="none" stroke-width="1" fill="none" fill-rule="evenodd">
        <g id="Recherche-Copy-3" transform="translate(-322.000000, -644.000000)" fill="#41AFC4">
            <g id="placeholder" transform="translate(322.000000, 644.000000)">
                <path d="M8,0 C3.5888,0 0,3.62735156 0,8.0859375 C0,9.59234766 0.412844444,11.0624609 1.19417778,12.3378828 L7.54462222,22.681459 C7.66626667,22.8796094 7.88057778,23 8.11106667,23 C8.11284444,23 8.11457778,23 8.11635556,23 C8.34884444,22.9981582 8.5636,22.8740391 8.68302222,22.6724297 L14.8716,12.2286328 C15.6098222,10.9801641 16,9.54765039 16,8.0859375 C16,3.62735156 12.4112,0 8,0 Z M13.7273778,11.5367461 L8.10097778,21.031793 L2.32742222,11.6278477 C1.67706667,10.5662539 1.32444444,9.34150391 1.32444444,8.0859375 C1.32444444,4.37044922 4.324,1.33867187 8,1.33867187 C11.676,1.33867187 14.6711111,4.37044922 14.6711111,8.0859375 C14.6711111,9.30426367 14.3417333,10.4977031 13.7273778,11.5367461 Z" id="Shape"></path>
                <path d="M8,4 C5.7944,4 4,5.7944 4,8 C4,10.1915111 5.7652,12 8,12 C10.2623556,12 12,10.1674222 12,8 C12,5.7944 10.2056,4 8,4 Z M8,10.6755556 C6.52191111,10.6755556 5.32444444,9.47408889 5.32444444,8 C5.32444444,6.5296 6.5296,5.32444444 8,5.32444444 C9.4704,5.32444444 10.6711111,6.5296 10.6711111,8 C10.6711111,9.45257778 9.50151111,10.6755556 8,10.6755556 Z" id="Shape"></path>
            </g>
        </g>
    </g>
</svg>