<?xml version="1.0" encoding="UTF-8"?>
<svg width="28px" height="28px" viewBox="0 0 28 28" version="1.1" xmlns="http://www.w3.org/2000/svg" xmlns:xlink="http://www.w3.org/1999/xlink">
    <!-- Generator: Sketch 53.2 (72643) - https://sketchapp.com -->
    <title>phone-call</title>
    <desc>Created with Sketch.</desc>
    <g id="Symbols" stroke="none" stroke-width="1" fill="none" fill-rule="evenodd">
        <g id="Bar/Menu" transform="translate(-333.000000, -7.000000)" fill="#41AFC4">
            <g id="Menu">
                <g id="phone-call" transform="translate(333.000000, 7.000000)">
                    <path d="M22.2238703,17.3370968 C21.6476476,16.7397849 20.952616,16.4204301 20.2160014,16.4204301 C19.4853272,16.4204301 18.7843552,16.733871 18.1843707,17.3311828 L16.3071915,19.194086 C16.1527401,19.1112903 15.9982886,19.0344086 15.8497776,18.9575269 C15.6359218,18.8510753 15.4339468,18.7505376 15.261674,18.644086 C13.5033036,17.5322581 11.9053251,16.0833333 10.3726914,14.2086022 C9.63013638,13.2741935 9.13113937,12.4876344 8.7687725,11.6892473 C9.25588862,11.2456989 9.7073621,10.7844086 10.1469547,10.3408602 C10.313287,10.1752688 10.4796194,10.0037634 10.6459517,9.83817204 C11.8934442,8.59623656 11.8934442,6.98763441 10.6459517,5.74569892 L9.02421144,4.1311828 C8.84005778,3.94784946 8.64996369,3.75860215 8.47175047,3.56935484 C8.11532404,3.20268817 7.74107629,2.82419355 7.35494765,2.46935484 C6.77872492,1.9016129 6.08963382,1.6 5.36490007,1.6 C4.64016633,1.6 3.93919435,1.9016129 3.34515029,2.46935484 C3.33920985,2.47526882 3.33920985,2.47526882 3.33326941,2.4811828 L1.31351963,4.50967742 C0.553143242,5.26666667 0.119491083,6.18924731 0.0244440341,7.25967742 C-0.118126539,8.98655914 0.392751347,10.5951613 0.784820422,11.6478495 C1.74717179,14.2322581 3.1847584,16.6274194 5.32925743,19.194086 C7.93117038,22.2870968 11.0617825,24.7295699 14.6379277,26.4505376 C16.0042291,27.0951613 17.8279443,27.8580645 19.8655154,27.988172 C19.9902647,27.994086 20.1209544,28 20.2397632,28 C21.6120049,28 22.7644504,27.5091398 23.6673974,26.5333333 C23.6733378,26.5215054 23.6852187,26.5155914 23.6911591,26.5037634 C24.000062,26.1311828 24.3564885,25.794086 24.7307362,25.4333333 C24.9861752,25.1908602 25.2475545,24.9365591 25.5029935,24.6704301 C26.0910971,24.0612903 26.4,23.3516129 26.4,22.6241935 C26.4,21.8908602 26.0851567,21.1870968 25.4851722,20.5956989 L22.2238703,17.3370968 Z M24.350548,23.5645161 C24.3446076,23.5645161 24.3446076,23.5704301 24.350548,23.5645161 C24.1188708,23.8129032 23.8812532,24.0376344 23.6258143,24.2860215 C23.2396856,24.6526882 22.8476166,25.0370968 22.4793092,25.4688172 C21.8793248,26.1075269 21.1724123,26.4091398 20.2457036,26.4091398 C20.156597,26.4091398 20.06155,26.4091398 19.9724433,26.4032258 C18.2081325,26.2908602 16.5685709,25.6048387 15.3388997,25.0193548 C11.9766104,23.3989247 9.02421144,21.0983871 6.5708095,18.1827957 C4.54511928,15.7521505 3.19069884,13.5048387 2.29369232,11.0919355 C1.74123135,9.61935484 1.53925637,8.47204301 1.62836298,7.38978495 C1.68776738,6.69784946 1.95508721,6.12419355 2.44814377,5.63333333 L4.47383399,3.61666667 C4.76491558,3.34462366 5.07381849,3.19677419 5.37678095,3.19677419 C5.75102871,3.19677419 6.05399117,3.42150538 6.24408527,3.61075269 C6.25002571,3.61666667 6.25596615,3.62258065 6.26190659,3.62849462 C6.62427347,3.9655914 6.96881902,4.31451613 7.33118589,4.68709677 C7.51533955,4.87634409 7.70543364,5.0655914 7.89552774,5.26075269 L9.51726801,6.87526882 C10.1469547,7.50215054 10.1469547,8.08172043 9.51726801,8.70860215 C9.34499523,8.88010753 9.1786629,9.0516129 9.00639012,9.2172043 C8.50739312,9.72580645 8.03215787,10.1989247 7.51533955,10.6602151 C7.50345866,10.672043 7.49157778,10.677957 7.48563734,10.6897849 C6.97475946,11.1983871 7.06980651,11.6951613 7.17673444,12.0322581 C7.18267488,12.05 7.18861532,12.0677419 7.19455576,12.0854839 C7.61632704,13.1026882 8.21037109,14.0607527 9.11331805,15.2021505 L9.11925849,15.2080645 C10.7588201,17.2188172 12.4874883,18.7860215 14.3943697,19.9865591 C14.6379277,20.1403226 14.8874262,20.2645161 15.1250439,20.3827957 C15.3388997,20.4892473 15.5408747,20.5897849 15.7131475,20.6962366 C15.7369092,20.7080645 15.760671,20.7258065 15.7844328,20.7376344 C15.9864077,20.838172 16.1765018,20.8854839 16.3725364,20.8854839 C16.8655929,20.8854839 17.1744959,20.577957 17.2754833,20.4774194 L19.307114,18.4548387 C19.509089,18.2537634 19.8298728,18.0112903 20.2041205,18.0112903 C20.5724278,18.0112903 20.8753903,18.2419355 21.059544,18.4430108 C21.0654844,18.4489247 21.0654844,18.4489247 21.0714248,18.4548387 L24.3446076,21.7134409 C24.956473,22.3166667 24.956473,22.9376344 24.350548,23.5645161 Z" id="Shape"></path>
                    <path d="M15.0225649,7.10052385 C16.4904254,7.34705571 17.8238254,8.04182729 18.8883044,9.10639666 C19.9527834,10.170966 20.6418934,11.5044792 20.8940069,12.9724644 C20.9556346,13.3422622 21.2749783,13.6 21.6391422,13.6 C21.6839623,13.6 21.72318,13.594397 21.7680001,13.588794 C22.1825867,13.521558 22.4571102,13.1293483 22.38988,12.7147265 C22.0873438,10.9385766 21.2469657,9.31931054 19.9639884,8.0362243 C18.6810111,6.75313806 17.0618826,5.91268856 15.2858834,5.61012674 C14.8712969,5.54289077 14.4847229,5.81743761 14.4118901,6.22645637 C14.3390574,6.63547513 14.6079784,7.03328789 15.0225649,7.10052385 Z" id="Path"></path>
                    <path d="M27.9882751,11.9109758 C27.4812574,8.93616415 26.0798378,6.2291995 23.9264369,4.07502553 C21.773036,1.92085156 19.0670428,0.518928816 16.0932987,0.0117291245 C15.6774303,-0.0623562237 15.2843491,0.222587423 15.2102904,0.638605148 C15.1419284,1.06032175 15.421073,1.45354398 15.8426383,1.52762933 C18.49736,1.97784029 20.9185118,3.23729121 22.8440396,5.15781139 C24.7695674,7.08403044 26.0228695,9.50605144 26.4729189,12.1617262 C26.535584,12.5378518 26.8603032,12.8 27.230597,12.8 C27.2761716,12.8 27.3160494,12.7943011 27.361624,12.7886023 C27.7774925,12.7259147 28.0623338,12.3269935 27.9882751,11.9109758 Z" id="Path"></path>
                </g>
            </g>
        </g>
    </g>
</svg>