<?xml version="1.0" encoding="UTF-8"?>
<svg width="28px" height="28px" viewBox="0 0 28 28" version="1.1" xmlns="http://www.w3.org/2000/svg" xmlns:xlink="http://www.w3.org/1999/xlink">
    <!-- Generator: Sketch 53.2 (72643) - https://sketchapp.com -->
    <title>home</title>
    <desc>Created with Sketch.</desc>
    <g id="Symbols" stroke="none" stroke-width="1" fill="none" fill-rule="evenodd">
        <g id="Bar/Menu" transform="translate(-55.000000, -7.000000)" fill="#41AFC4">
            <g id="Menu">
                <g id="home" transform="translate(55.000000, 7.000000)">
                    <path d="M27.7022073,10.5881223 L14.4297942,0.150921997 C14.1738572,-0.0503073324 13.8261547,-0.0503073324 13.570327,0.150921997 L0.297804514,10.5881223 C-0.0263823912,10.843095 -0.0968197618,11.332013 0.14057824,11.6801996 C0.377976241,12.0283863 0.833248843,12.1039207 1.15738106,11.8490654 L14.0000059,1.74977301 L26.8426308,11.8490067 C26.9721305,11.9509136 27.1226303,11.9999581 27.2718175,11.9999581 C27.4958171,11.9999581 27.7168635,11.8892408 27.8593789,11.6801409 C28.0968316,11.332013 28.0263942,10.843095 27.7022073,10.5881223 Z" id="Path"></path>
                    <path d="M24.3403116,12 C23.9469936,12 23.6280452,12.3786696 23.6280452,12.845776 L23.6280452,26.3083208 L17.9300209,26.3083208 L17.9300209,18.9596122 C17.9300209,16.6275769 16.3322268,14.7304141 14.3684211,14.7304141 C12.4046153,14.7304141 10.8068212,16.627704 10.8068212,18.9596122 L10.8068212,26.3083843 L5.10874337,26.3083843 L5.10874337,12.8458396 C5.10874337,12.3787332 4.78979493,12.0000636 4.39647695,12.0000636 C4.00315897,12.0000636 3.68421053,12.3787332 3.68421053,12.8458396 L3.68421053,27.154224 C3.68421053,27.6213304 4.00315897,28 4.39647695,28 L11.5190876,28 C11.893666,28 12.2001928,27.6563618 12.2285699,27.2200906 C12.2302832,27.2003179 12.2313541,27.1787014 12.2313541,27.154224 L12.2313541,18.9596758 C12.2313541,17.560391 13.1900198,16.4220297 14.3684211,16.4220297 C15.5468223,16.4220297 16.505488,17.5604546 16.505488,18.9596758 L16.505488,27.154224 C16.505488,27.1785743 16.5065589,27.1998093 16.5082722,27.2193277 C16.5363281,27.6559167 16.8429619,28 17.2177545,28 L24.3403652,28 C24.7337367,28 25.0526316,27.6213304 25.0526316,27.154224 L25.0526316,12.8458396 C25.052578,12.3786696 24.7336831,12 24.3403116,12 Z" id="Path"></path>
                </g>
            </g>
        </g>
    </g>
</svg>