<?xml version="1.0" encoding="UTF-8"?>
<svg width="28px" height="28px" viewBox="0 0 28 28" version="1.1" xmlns="http://www.w3.org/2000/svg" xmlns:xlink="http://www.w3.org/1999/xlink">
    <!-- Generator: Sketch 53.2 (72643) - https://sketchapp.com -->
    <title>magnifier</title>
    <desc>Created with Sketch.</desc>
    <g id="Symbols" stroke="none" stroke-width="1" fill="none" fill-rule="evenodd">
        <g id="Bar/Menu" transform="translate(-194.000000, -7.000000)" fill="#41AFC4">
            <g id="magnifier" transform="translate(194.000000, 7.000000)">
                <path d="M27.2448871,23.60102 L20.9386239,17.2941176 C19.998987,18.7554966 18.7554666,19.9984193 17.2941176,20.9381321 L23.6008907,27.2450345 C24.6077173,28.2516552 26.2401566,28.2516552 27.2448304,27.2450345 C28.2517137,26.2400568 28.2517137,24.607584 27.2448871,23.60102 Z" id="Path"></path>
                <path d="M21.4117647,10.706 C21.4117647,4.79376736 16.618259,0 10.7059412,0 C4.79374102,0 0,4.79376736 0,10.706 C0,16.6182327 4.79374102,21.4117647 10.7059412,21.4117647 C16.618259,21.4117647 21.4117647,16.6182327 21.4117647,10.706 Z M10.7058733,19.5589853 C5.82407792,19.5589853 1.85302943,15.5881448 1.85302943,10.7062063 C1.85302943,5.82426787 5.82407792,1.85310298 10.7058733,1.85310298 C15.5875389,1.85310298 19.5589118,5.82426787 19.5589118,10.7062063 C19.5589118,15.5881448 15.5875389,19.5589853 10.7058733,19.5589853 Z" id="Shape"></path>
                <path d="M4.94117647,10.7058824 L6.5880646,10.7058824 C6.5880646,8.43544453 8.43547745,6.58821202 10.7058824,6.58821202 L10.7058824,4.94117647 C7.52763051,4.94117647 4.94117647,7.52760614 4.94117647,10.7058824 Z" id="Path"></path>
            </g>
        </g>
    </g>
</svg>